<?xml version="1.0" encoding="UTF-8"?>
<svg id="Layer_1" data-name="Layer 1" xmlns="http://www.w3.org/2000/svg" viewBox="0 0 1920 1087.18">
  <defs>
    <style>
      .cls-1 {
        fill: #fff;
      }

      .cls-2 {
        fill: #ff7f43;
      }

      .cls-3 {
        fill: #0f163a;
      }
    </style>
  </defs>
  <rect class="cls-3" width="1920" height="1087.18"/>
  <g>
    <path class="cls-2" d="M645.25,475.52v1.48h-3.69v9.24h-1.75v-9.24h-3.69v-1.48h9.13Zm10.31,0h1.64v10.72h-1.7v-7.88l-3.42,5.8h-1.34l-3.34-5.55v7.63h-1.7v-10.72h1.64l4.16,6.84,4.05-6.84Z"/>
    <path class="cls-2" d="M754.26,566.42v62.05l80.32-59.51v-52.86c0-33.34-25.26-60.77-57.69-64.21l-6.9-.37h-8.62l-7.11,.4c-29.07,3.19-53.09,27.42-57.47,56.11,0,0,57.2-7.4,57.47,58.39Z"/>
    <rect class="cls-2" x="636.14" y="509.68" width="60.64" height="60.64"/>
    <g>
      <path class="cls-1" d="M878.61,503.48h13.07v14.77c6.71-10.89,15.6-16.34,26.67-16.34,15.86,0,23.79,9.46,23.79,28.37v41.84h-13.07v-40.53c0-12.11-4.58-18.17-13.73-18.17-5.32,0-9.87,1.77-13.66,5.3-3.79,3.53-7.12,9.04-10,16.54v36.87h-13.07v-68.63Z"/>
      <path class="cls-1" d="M954.82,537.86c0-11.24,3.18-20.07,9.54-26.47,6.36-6.41,14.38-9.61,24.05-9.61,10.81,0,19.26,4.62,25.36,13.86v-12.16h13.07v68.63h-13.07v-13.47c-5.93,9.94-14.38,14.9-25.36,14.9-9.59,0-17.58-3.16-23.99-9.48-6.41-6.32-9.61-15.06-9.61-26.21Zm58.96,0v-.52c-1.4-7.06-4.34-12.83-8.82-17.32-4.49-4.49-9.61-6.73-15.36-6.73-6.27,0-11.35,2.07-15.23,6.21-3.88,4.14-5.82,10.22-5.82,18.24,0,7.5,1.96,13.42,5.88,17.78,3.92,4.36,8.98,6.54,15.17,6.54s11.42-2.24,15.69-6.73c4.27-4.49,7.1-10.31,8.5-17.45Z"/>
      <path class="cls-1" d="M1039.67,568.06l2.88-11.24c6.54,3.92,13.73,5.88,21.57,5.88,10.11,0,15.16-3.14,15.16-9.41,0-2.88-1.33-5.01-3.99-6.41-2.66-1.39-5.86-2.42-9.61-3.07-3.75-.65-7.5-1.5-11.24-2.55-3.75-1.05-6.95-3.07-9.61-6.08-2.66-3.01-3.99-7.13-3.99-12.36,0-6.36,2.37-11.46,7.13-15.3,4.75-3.83,11.31-5.75,19.68-5.75s15.9,1.83,22.36,5.49l-2.74,11.11c-6.36-3.75-12.77-5.62-19.22-5.62-4.1,0-7.45,.83-10.07,2.48-2.61,1.66-3.92,3.92-3.92,6.8,0,3.14,1.31,5.54,3.92,7.19,2.61,1.66,5.8,2.83,9.54,3.53,3.75,.7,7.49,1.53,11.24,2.48,3.75,.96,6.93,2.83,9.54,5.62,2.61,2.79,3.92,6.58,3.92,11.37,0,6.36-2.7,11.5-8.11,15.43-5.41,3.92-12.16,5.88-20.26,5.88-8.98,0-17.04-1.83-24.19-5.49Z"/>
      <path class="cls-1" d="M1104.91,480.21h13.07v38.04c6.71-10.98,15.6-16.47,26.67-16.47,15.86,0,23.79,9.5,23.79,28.5v41.84h-13.07v-40.66c0-12.03-4.58-18.04-13.73-18.04-4.97,0-9.37,1.83-13.2,5.49-3.84,3.66-7.32,9.15-10.46,16.47v36.74h-13.07v-91.91Z"/>
      <path class="cls-1" d="M1183.22,482.56c0-2.35,.87-4.36,2.61-6.01,1.74-1.65,3.79-2.48,6.14-2.48s4.51,.81,6.21,2.42c1.7,1.61,2.55,3.64,2.55,6.08s-.87,4.38-2.61,6.08c-1.74,1.7-3.79,2.55-6.14,2.55s-4.4-.83-6.14-2.48c-1.74-1.65-2.61-3.7-2.61-6.14Zm2.22,20.92h13.07v68.63h-13.07v-68.63Z"/>
      <path class="cls-1" d="M1221.59,564.07c-6.41-6.32-9.61-15.06-9.61-26.21s3.18-19.96,9.54-26.41c6.36-6.45,14.34-9.67,23.92-9.67,10.89,0,19.35,4.58,25.36,13.73v-35.3h13.07v91.91h-12.94v-13.47c-5.93,9.94-14.43,14.9-25.49,14.9-9.5,0-17.45-3.16-23.86-9.48Zm49.35-26.21v-.52c-1.4-7.15-4.31-12.94-8.76-17.39-4.44-4.44-9.63-6.67-15.56-6.67-6.27,0-11.33,2.07-15.17,6.21-3.84,4.14-5.75,10.22-5.75,18.24,0,7.5,1.96,13.42,5.88,17.78,3.92,4.36,8.98,6.54,15.17,6.54s11.42-2.24,15.69-6.73c4.27-4.49,7.1-10.31,8.5-17.45Z"/>
    </g>
  </g>
</svg>